<svg xmlns="http://www.w3.org/2000/svg" xmlns:xlink="http://www.w3.org/1999/xlink" version="1.1" x="0px" y="0px" viewBox="0 0 24 30" style="enable-background:new 0 0 24 24;" xml:space="preserve"><g><path d="M12,1.953C6.46,1.953,1.953,6.46,1.953,12S6.46,22.047,12,22.047S22.047,17.54,22.047,12S17.54,1.953,12,1.953z M20.74,12   c0,4.819-3.921,8.74-8.74,8.74S3.26,16.819,3.26,12S7.181,3.26,12,3.26S20.74,7.181,20.74,12z"/><path d="M17.14,11.347h-4.433V5.438c0-0.36-0.293-0.653-0.653-0.653S11.4,5.078,11.4,5.438V12c0,0.36,0.293,0.653,0.653,0.653   h5.087c0.36,0,0.653-0.293,0.653-0.653S17.5,11.347,17.14,11.347z"/></g><text x="0" y="39" fill="#000000" font-size="5px" font-weight="bold" font-family="'Helvetica Neue', Helvetica, Arial-Unicode, Arial, Sans-serif">Created by AlePio</text><text x="0" y="44" fill="#000000" font-size="5px" font-weight="bold" font-family="'Helvetica Neue', Helvetica, Arial-Unicode, Arial, Sans-serif">from the Noun Project</text></svg>