<?xml version="1.0" standalone="no"?><!DOCTYPE svg PUBLIC "-//W3C//DTD SVG 1.1//EN" "http://www.w3.org/Graphics/SVG/1.1/DTD/svg11.dtd"><svg t="1536743724476" class="icon" style="" viewBox="0 0 1024 1024" version="1.1" xmlns="http://www.w3.org/2000/svg" p-id="2951" xmlns:xlink="http://www.w3.org/1999/xlink" width="32" height="32"><defs><style type="text/css"></style></defs><path d="M512 0C230.4 0 0 230.4 0 512s230.4 512 512 512c281.6 0 512-230.4 512-512S793.6 0 512 0zM512 938.666334C273.066334 938.666334 85.333666 750.933666 85.333666 512S273.066334 85.333666 512 85.333666 938.666334 273.066334 938.666334 512 750.933666 938.666334 512 938.666334zM725.333666 298.666334c-17.066334-17.066334-42.667333-17.066334-59.733666 0L512 452.266334l-153.6-153.6c-17.066334-17.066334-42.666334-17.066334-59.732667 0-17.066334 17.066334-17.066334 42.666334 0 59.732667L452.266334 512l-153.6 153.6c-17.066334 17.066334-17.066334 42.667333 0 59.733666 17.066334 17.066334 42.666334 17.066334 59.732667 0L512 571.732667l153.6 153.600999c17.066334 17.066334 42.667333 17.066334 59.733666 0s17.066334-42.667333 0-59.733666L571.732667 512l153.600999-153.6C742.4 341.333666 742.4 315.733666 725.333666 298.666334z" p-id="2952" fill="#707070"></path></svg>