<?xml version="1.0" standalone="no"?><!DOCTYPE svg PUBLIC "-//W3C//DTD SVG 1.1//EN" "http://www.w3.org/Graphics/SVG/1.1/DTD/svg11.dtd"><svg t="1540895787115" class="icon" style="" viewBox="0 0 1024 1024" version="1.1" xmlns="http://www.w3.org/2000/svg" p-id="2175" xmlns:xlink="http://www.w3.org/1999/xlink" width="32" height="32"><defs><style type="text/css"></style></defs><path d="M914.285714 73.142857h-804.571428C51.2 73.142857 0 124.342857 0 182.857143v585.142857c0 58.514286 51.2 109.714286 109.714286 109.714286h804.571428c58.514286 0 109.714286-51.2 109.714286-109.714286v-585.142857c0-58.514286-51.2-109.714286-109.714286-109.714286z m-804.571428 73.142857h804.571428L563.2 497.371429c-14.628571 14.628571-29.257143 21.942857-51.2 21.942857s-36.571429-7.314286-51.2-21.942857L109.714286 146.285714zM73.142857 782.628571V212.114286l285.257143 285.257143L73.142857 782.628571z m80.457143 21.942858l256-256c29.257143 29.257143 65.828571 43.885714 102.4 43.885714s73.142857-14.628571 102.4-43.885714l43.885714-43.885715-43.885714 43.885715 256 256H153.6z m797.257143-36.571429v14.628571L665.6 497.371429 950.857143 212.114286v555.885714z" p-id="2176"></path></svg>