<?xml version="1.0" standalone="no"?><!DOCTYPE svg PUBLIC "-//W3C//DTD SVG 1.1//EN" "http://www.w3.org/Graphics/SVG/1.1/DTD/svg11.dtd"><svg t="1540283058247" class="icon" style="" viewBox="0 0 1024 1024" version="1.1" xmlns="http://www.w3.org/2000/svg" p-id="1152" xmlns:xlink="http://www.w3.org/1999/xlink" width="32" height="32"><defs><style type="text/css"></style></defs><path d="M698.4 158.3c61.8 0 120.1 28.3 160 77.7 68.1 84.2 58.1 215.1-22.6 297.8l-324 331.9-323.6-331.9C107.5 451 97.5 320.2 165.6 236c39.9-49.4 98.2-77.7 160-77.7 55.2 0 107.2 22.1 146.3 62.3l40.1 41.1 40.1-41.1c39.2-40.2 91.1-62.3 146.3-62.3m0-56c-67.5 0-134.9 26.4-186.4 79.2-51.5-52.8-118.9-79.2-186.4-79.2-75.3 0-150.5 32.8-203.6 98.5C33.4 310.5 49.6 472 148.1 572.9l323.6 331.9c11 11.3 25.7 17 40.3 17s29.2-5.7 40.3-17l323.6-331.9c98.5-101 114.7-262.4 26.1-372.1-53.1-65.7-128.3-98.5-203.6-98.5z" p-id="1153"></path></svg>