<?xml version="1.0" standalone="no"?><!DOCTYPE svg PUBLIC "-//W3C//DTD SVG 1.1//EN" "http://www.w3.org/Graphics/SVG/1.1/DTD/svg11.dtd"><svg t="1540283076054" class="icon" style="" viewBox="0 0 1024 1024" version="1.1" xmlns="http://www.w3.org/2000/svg" p-id="1331" xmlns:xlink="http://www.w3.org/1999/xlink" width="32" height="32"><defs><style type="text/css"></style></defs><path d="M878.278823 211.852756c-45.610876-45.156984-106.425244-67.924547-166.956004-67.924547-56.994558 0-113.705708 20.195907-157.103884 60.965665-18.248028 15.657384-31.485053 27.854315-42.263745 27.854315-11.497205 0-21.632933-11.478418-42.150422-27.854315-46.423925-40.996804-103.0971-61.192711-159.278609-61.192711-59.850022 0-119.113841 22.937848-164.762491 68.151593-91.826741 90.881382-91.826741 246.264433 0 337.145815l331.28359 320.240277c6.618513 6.599725 21.576371 11.0623 36.628566 11.0623 12.707584 0 25.452743-3.195833 33.281635-11.005538l331.340351-320.296839C970.049003 458.117189 970.049003 302.715151 878.278823 211.852756zM851.994044 521.78702 521.27767 841.478869c-1.115843 0.397131-3.668513 0.983333-7.620633 0.983333-5.351572 0-9.776571-1.115843-11.818787-1.872131L172.351042 522.108602c-36.647553-36.250422-57.656509-87.893608-57.656509-141.692333 0-53.779937 21.008956-105.423123 57.675296-141.692333 37.233756-36.893386 86.286098-57.202617 138.137343-57.202617 48.787722 0 96.4598 18.361551 134.241784 51.718735l0.718513 0.623977 0.7375 0.60519c4.538323 3.592964 8.528418 6.958882 12.140169 9.984431 15.940992 13.426097 31.012374 26.095707 53.590865 26.095707 23.99673 0 41.999125-15.506087 62.837796-33.470707l4.065643-3.517215 0.642964-0.548428 0.623977-0.567215c34.813197-32.695432 81.426193-50.716614 131.216235-50.716614 52.607532 0 103.759051 20.763123 140.330856 56.97577 36.628566 36.269409 57.618734 87.893608 57.618734 141.692333S888.282241 485.85818 851.994044 521.78702zM313.986613 235.14976c-22.408407-2.590644-68.019083 5.710728-101.6221 39.332732-27.135802 27.060253-43.681984 66.29825-44.268186 104.988218-0.151297 10.45731 8.188049 19.042289 18.626371 19.212574 0.094536 0 0.189072 0 0.302595 0 10.306013 0 18.739694-8.282584 18.909979-18.626371 0.434905-29.064694 12.839895-58.526319 33.168112-78.816762 24.60192-24.620707 58.734378-29.858756 70.496403-28.516266 10.306013 1.285928 19.760802-6.221382 20.971182-16.583956C331.780949 245.758368 324.349387 236.341153 313.986613 235.14976z" p-id="1332"></path></svg>