<svg xmlns="http://www.w3.org/2000/svg" xmlns:xlink="http://www.w3.org/1999/xlink" xml:space="preserve" version="1.1" style="shape-rendering:geometricPrecision;text-rendering:geometricPrecision;image-rendering:optimizeQuality;" viewBox="0 0 462 360" x="0px" y="0px" fill-rule="evenodd" clip-rule="evenodd"><defs><style type="text/css">
   
    .fil0 {fill:black}
   
  </style></defs><g><path class="fil0" d="M70 156l42 -111c-34,-13 -14,-53 13,-43l91 34c27,10 15,54 -19,41l-15 40 270 101c20,8 8,38 -12,30l-269 -100 -15 40c34,13 13,53 -13,43l-91 -34c-27,-10 -16,-54 18,-41z"/><polygon class="fil0" points="11,249 193,249 193,267 11,267 "/><polygon class="fil0" points="0,270 204,270 204,288 0,288 "/></g><text x="0" y="303" fill="#000000" font-size="5px" font-weight="bold" font-family="'Helvetica Neue', Helvetica, Arial-Unicode, Arial, Sans-serif">Created by Saifurrijal</text><text x="0" y="308" fill="#000000" font-size="5px" font-weight="bold" font-family="'Helvetica Neue', Helvetica, Arial-Unicode, Arial, Sans-serif">from the Noun Project</text></svg>