<?xml version="1.0" standalone="no"?><!DOCTYPE svg PUBLIC "-//W3C//DTD SVG 1.1//EN" "http://www.w3.org/Graphics/SVG/1.1/DTD/svg11.dtd"><svg t="1539178959401" class="icon" style="" viewBox="0 0 1024 1024" version="1.1" xmlns="http://www.w3.org/2000/svg" p-id="1147" xmlns:xlink="http://www.w3.org/1999/xlink" width="32" height="32"><defs><style type="text/css"></style></defs><path d="M916.79 736.368c-63.417-55.055-108.745-201.277-108.745-373.03 0-130.009-83.282-240.256-199.127-280.6C601.102 35.84 560.758 0.002 511.812 0.002c-48.945 0-89.29 35.838-97.106 82.736-115.844 40.344-199.127 150.591-199.127 280.6 0 171.72-45.293 317.941-108.745 372.996-35.429 30.753-55.806 75.432-55.806 122.466 0 54.748 44.202 99.12 98.745 99.12H445.97c0 54.714 11.298 66.046 65.841 66.046 54.543 0 65.841-11.332 65.841-66.046h296.199c54.543 0 98.744-44.372 98.744-99.12 0-47-20.343-91.678-55.806-122.432zM187.557 887.471c-59.56 0-62.803-64.236-49.082-76.182 88.163-76.49 142.945-248.141 142.945-447.95 0-109.292 121.51-231.212 230.392-231.212 108.882 0 230.392 121.92 230.392 231.211 0 199.81 54.782 371.495 142.946 447.985 13.755 11.912 20.854 76.148-49.082 76.148H187.557z" p-id="1148"></path></svg>