<?xml version="1.0" standalone="no"?><!DOCTYPE svg PUBLIC "-//W3C//DTD SVG 1.1//EN" "http://www.w3.org/Graphics/SVG/1.1/DTD/svg11.dtd"><svg t="1540201005880" class="icon" style="" viewBox="0 0 1024 1024" version="1.1" xmlns="http://www.w3.org/2000/svg" p-id="2557" xmlns:xlink="http://www.w3.org/1999/xlink" width="32" height="32"><defs><style type="text/css"></style></defs><path d="M774.656 774.656a371.2 371.2 0 1 0-524.8 0 371.2 371.2 0 0 0 524.8 0zM819.2 819.2a435.2 435.2 0 1 1 0-614.4 435.2 435.2 0 0 1 0 614.4z" fill="#d81e06" p-id="2558"></path><path d="M694.272 366.592a32.256 32.256 0 1 1 45.056 45.056l-249.856 249.856a37.376 37.376 0 0 1-51.2 0l-142.336-141.312a32.256 32.256 0 1 1 45.056-45.056L460.8 597.504z" fill="#d81e06" p-id="2559"></path></svg>