<?xml version="1.0" standalone="no"?><!DOCTYPE svg PUBLIC "-//W3C//DTD SVG 1.1//EN" "http://www.w3.org/Graphics/SVG/1.1/DTD/svg11.dtd"><svg t="1536051326845" class="icon" style="" viewBox="0 0 1024 1024" version="1.1" xmlns="http://www.w3.org/2000/svg" p-id="5763" xmlns:xlink="http://www.w3.org/1999/xlink" width="32" height="32"><defs><style type="text/css"></style></defs><path d="M500.16 127.36c-12.8 0-20.16 0.64-20.16 0.64S128 160 128 544c0 0 0 224 128 224 112 0 126.08-171.52 192-171.52 9.6 0 19.84 3.52 32 11.52 96 64-224 160-128 256 25.28 25.28 75.52 39.68 135.36 39.68C654.08 903.68 896 794.24 896 512 896 151.36 583.68 127.36 500.16 127.36z m-12.8 744.32c-50.88 0-94.08-11.52-112.64-30.4-9.28-9.28-8.96-14.72-8.96-16.32 1.6-22.08 46.08-56.96 78.72-82.56 46.72-36.8 87.36-68.16 85.76-109.44-0.64-14.08-6.72-34.24-32.32-51.52-16.96-11.2-33.6-16.96-49.92-16.96-47.04 0-72 43.232-96.64 84.8C320.96 701.76 297.92 736 256 736c-93.12 0-96-190.08-96-192C160 194.56 469.76 161.28 482.56 160c0.32 0 6.72-0.64 17.6-0.64C585.6 159.36 864 184.96 864 512c0 264-225.28 359.68-376.64 359.68z" fill="#2D2220" p-id="5764"></path><path d="M802.24 293.12c-85.44-62.08-191.04-69.76-238.08-69.76-10.88 0-17.28 0.64-17.6 0.64C533.76 225.28 224 258.56 224 608c0 1.28 0.96 72 23.04 127.36 2.88 0.32 5.76 0.64 8.96 0.64 41.92 0 64.96-34.24 95.36-86.72 24.64-41.6 49.6-84.8 96.64-84.8 16.32 0 32.96 5.792 49.92 16.96 24.32 16.672 31.04 35.52 32 49.6 0.32 0.672 0.32 1.28 0.32 1.952 1.6 41.28-39.04 72.64-85.76 109.44-32.64 25.6-77.12 60.48-78.72 82.56 0 1.6-0.32 7.04 8.96 16.32 12.48 12.8 35.84 22.08 65.6 26.56 14.4 2.56 30.4 3.84 47.04 3.84C638.72 871.68 864 776 864 512c0-97.28-24.64-168-61.76-218.88zM416 416c-35.2 0-64-28.8-64-64s28.8-64 64-64 64 28.8 64 64-28.8 64-64 64z m256 288c-35.2 0-64-28.8-64-64s28.8-64 64-64 64 28.8 64 64-28.8 64-64 64z m0-256c-35.2 0-64-28.8-64-64s28.8-64 64-64 64 28.8 64 64-28.8 64-64 64z" fill="#FFD561" p-id="5765"></path><path d="M256 480c-35.2 0-64 28.8-64 64s28.8 64 64 64 64-28.8 64-64-28.8-64-64-64z m0 96c-17.6 0-32-14.4-32-32s14.4-32 32-32 32 14.4 32 32-14.4 32-32 32z" fill="#2D2220" p-id="5766"></path><path d="M256 544m-32 0a32 32 0 1 0 64 0 32 32 0 1 0-64 0Z" fill="#31CFFF" p-id="5767"></path><path d="M416 256c-53.12 0-96 42.88-96 96s42.88 96 96 96 96-42.88 96-96-42.88-96-96-96z m0 160c-35.2 0-64-28.8-64-64s28.8-64 64-64 64 28.8 64 64-28.8 64-64 64z" fill="#2D2220" p-id="5768"></path><path d="M480 352c0 35.2-28.8 64-64 64-9.28 0-18.24-1.92-26.24-5.76-3.84-8-5.76-16.96-5.76-26.24 0-35.2 28.8-64 64-64 9.28 0 18.24 1.92 26.24 5.76 3.84 8 5.76 16.96 5.76 26.24z" fill="#E371FF" p-id="5769"></path><path d="M672 288c-53.12 0-96 42.88-96 96s42.88 96 96 96 96-42.88 96-96-42.88-96-96-96z m0 160c-35.2 0-64-28.8-64-64s28.8-64 64-64 64 28.8 64 64-28.8 64-64 64z" fill="#2D2220" p-id="5770"></path><path d="M736 384c0 35.2-28.8 64-64 64-9.28 0-18.24-1.92-26.24-5.76-3.84-8-5.76-16.96-5.76-26.24 0-35.2 28.8-64 64-64 9.28 0 18.24 1.92 26.24 5.76 3.84 8 5.76 16.96 5.76 26.24z" fill="#FF6B43" p-id="5771"></path><path d="M672 544c-53.12 0-96 42.88-96 96s42.88 96 96 96 96-42.88 96-96-42.88-96-96-96z m0 160c-35.2 0-64-28.8-64-64s28.8-64 64-64 64 28.8 64 64-28.8 64-64 64z" fill="#2D2220" p-id="5772"></path><path d="M736 640c0 35.2-28.8 64-64 64-9.28 0-18.24-1.92-26.24-5.76-3.84-8-5.76-16.96-5.76-26.24 0-35.2 28.8-64 64-64 9.28 0 18.24 1.92 26.24 5.76 3.84 8 5.76 16.96 5.76 26.24z" fill="#FFA28D" p-id="5773"></path></svg>